<?xml version="1.0" encoding="UTF-8"?>
<!DOCTYPE svg PUBLIC "-//W3C//DTD SVG 1.1//EN" "http://www.w3.org/Graphics/SVG/1.1/DTD/svg11.dtd">
<!-- Creator: CorelDRAW 2018 (64 Bit Versão de avaliação) -->
<svg xmlns="http://www.w3.org/2000/svg" xml:space="preserve" width="47.9212mm" height="11.6838mm" version="1.1" style="shape-rendering:geometricPrecision; text-rendering:geometricPrecision; image-rendering:optimizeQuality; fill-rule:evenodd; clip-rule:evenodd"
viewBox="0 0 4792.12 1168.38"
 xmlns:xlink="http://www.w3.org/1999/xlink">
 <defs>
  <style type="text/css">
   <![CDATA[
    .fil0 {fill:#FEFEFE}
    .fil3 {fill:#9ED3A9}
    .fil1 {fill:#76C696}
    .fil2 {fill:#248F55}
    .fil4 {fill:#2FB86E}
   ]]>
  </style>
 </defs>
 <g id="Camada_x0020_1">
  <metadata id="CorelCorpID_0Corel-Layer"/>
  <g id="_2616162225664">
   <polygon class="fil0" points="1905.02,897.24 1905.02,310.49 2301.26,310.49 2301.26,421.41 2037.1,421.41 2037.1,536.55 2271.63,536.55 2271.63,644.93 2037.1,644.93 2037.1,786.32 2320.73,786.32 2320.73,897.24 "/>
   <path class="fil0" d="M2378.92 674.56c0,-32.17 5.08,-62.37 15.24,-90.59 10.73,-28.79 25.97,-53.62 45.72,-74.51 19.76,-21.45 43.75,-38.38 71.97,-50.8 28.22,-12.42 60.4,-18.63 96.52,-18.63 23.71,0 45.45,2.26 65.19,6.78 19.76,3.95 38.94,9.88 57.57,17.78l-26.25 100.75c-11.85,-4.51 -24.81,-8.47 -38.94,-11.85 -14.11,-3.39 -29.91,-5.08 -47.41,-5.08 -37.25,0 -65.19,11.57 -83.82,34.71 -18.06,23.14 -27.09,53.62 -27.09,91.44 0,40.08 8.46,71.12 25.4,93.14 17.5,22.01 47.69,33.02 90.59,33.02 15.24,0 31.61,-1.42 49.1,-4.24 17.52,-2.82 33.6,-7.34 48.26,-13.54l17.78 103.29c-14.66,6.21 -33.02,11.57 -55.03,16.09 -22.02,4.51 -46.28,6.77 -72.81,6.77 -40.64,0 -75.63,-5.93 -104.99,-17.78 -29.35,-12.42 -53.62,-29.07 -72.81,-49.96 -18.63,-20.88 -32.45,-45.43 -41.49,-73.65 -8.46,-28.79 -12.7,-59.84 -12.7,-93.14z"/>
   <path class="fil0" d="M3218.49 673.72c0,34.99 -5.08,67.16 -15.24,96.52 -10.16,28.78 -24.84,53.62 -44.02,74.5 -19.21,20.32 -42.34,36.13 -69.43,47.42 -26.54,11.28 -56.46,16.93 -89.75,16.93 -32.75,0 -62.65,-5.65 -89.74,-16.93 -26.54,-11.29 -49.4,-27.1 -68.58,-47.42 -19.21,-20.88 -34.16,-45.72 -44.88,-74.5 -10.74,-29.36 -16.08,-61.53 -16.08,-96.52 0,-35 5.34,-66.89 16.08,-95.68 11.27,-28.79 26.51,-53.34 45.72,-73.66 19.74,-20.32 42.89,-36.12 69.43,-47.41 27.09,-11.29 56.43,-16.94 88.05,-16.94 32.18,0 61.52,5.65 88.06,16.94 27.09,11.29 50.21,27.09 69.42,47.41 19.18,20.32 34.13,44.87 44.88,73.66 10.71,28.79 16.08,60.68 16.08,95.68zm-128.69 0c0,-38.95 -7.91,-69.43 -23.71,-91.45 -15.24,-22.57 -37.25,-33.86 -66.04,-33.86 -28.78,0 -51.09,11.29 -66.88,33.86 -15.83,22.02 -23.71,52.5 -23.71,91.45 0,38.94 7.88,69.99 23.71,93.13 15.79,22.58 38.1,33.87 66.88,33.87 28.79,0 50.8,-11.29 66.04,-33.87 15.8,-23.14 23.71,-54.19 23.71,-93.13z"/>
   <path class="fil0" d="M3494 905.7c-36.67,-0.56 -66.59,-4.51 -89.74,-11.85 -22.57,-7.34 -40.64,-17.5 -54.19,-30.48 -12.96,-13.55 -22.01,-29.64 -27.09,-48.26 -4.5,-19.19 -6.78,-40.64 -6.78,-64.35l0 -490.22 126.16 -20.32 0 485.14c0,11.29 0.84,21.45 2.54,30.48 1.69,9.03 4.81,16.65 9.31,22.86 5.08,6.21 12.14,11.29 21.17,15.24 9.05,3.95 21.16,6.49 36.4,7.62l-17.78 104.14z"/>
   <path class="fil0" d="M3562.93 677.95c0,-39.51 5.92,-73.94 17.78,-103.3 12.43,-29.91 28.52,-54.75 48.26,-74.5 19.76,-19.76 42.33,-34.72 67.73,-44.88 25.98,-10.16 52.49,-15.24 79.59,-15.24 63.23,0 113.19,19.48 149.86,58.43 36.7,38.38 55.03,95.1 55.03,170.18 0,7.33 -0.26,15.52 -0.85,24.55 -0.55,8.47 -1.11,16.09 -1.69,22.86l-286.17 0c2.83,25.96 14.97,46.57 36.4,61.81 21.46,15.24 50.25,22.86 86.36,22.86 23.16,0 45.72,-1.98 67.74,-5.93 22.59,-4.52 40.93,-9.88 55.03,-16.09l16.93 102.45c-6.77,3.38 -15.79,6.77 -27.09,10.16 -11.27,3.38 -23.97,6.21 -38.1,8.46 -13.55,2.83 -28.2,5.08 -44.03,6.78 -15.79,1.69 -31.59,2.54 -47.41,2.54 -40.06,0 -75.06,-5.93 -104.99,-17.78 -29.34,-11.86 -53.89,-27.94 -73.66,-48.26 -19.18,-20.89 -33.57,-45.44 -43.18,-73.66 -9.02,-28.22 -13.54,-58.7 -13.54,-91.44zm296.33 -48.26c-0.55,-10.73 -2.54,-21.17 -5.93,-31.33 -2.8,-10.16 -7.62,-19.19 -14.39,-27.09 -6.19,-7.9 -14.39,-14.4 -24.55,-19.48 -9.58,-5.08 -21.73,-7.62 -36.41,-7.62 -14.1,0 -26.25,2.54 -36.41,7.62 -10.16,4.52 -18.62,10.73 -25.4,18.63 -6.77,7.9 -12.11,17.22 -16.08,27.94 -3.39,10.16 -5.93,20.6 -7.62,31.33l166.79 0z"/>
   <path class="fil0" d="M4074.31 340.97l126.16 -20.32 0 131.24 151.55 0 0 104.98 -151.55 0 0 156.64c0,26.53 4.5,47.69 13.54,63.5 9.58,15.8 28.5,23.71 56.73,23.71 13.55,0 27.36,-1.13 41.49,-3.39 14.66,-2.82 27.94,-6.49 39.79,-11.01l17.78 98.21c-15.24,6.21 -32.17,11.58 -50.8,16.09 -18.63,4.52 -41.49,6.78 -68.58,6.78 -34.45,0 -62.94,-4.52 -85.51,-13.55 -22.6,-9.6 -40.64,-22.58 -54.19,-38.95 -13.55,-16.93 -23.15,-37.25 -28.79,-60.96 -5.08,-23.7 -7.62,-49.95 -7.62,-78.74l0 -374.23z"/>
   <path class="fil0" d="M4608.38 809.18c12.43,0 24.28,-0.28 35.58,-0.84 11.27,-0.57 20.3,-1.42 27.1,-2.54l0 -95.68c-5.08,-1.13 -12.73,-2.26 -22.89,-3.38 -10.16,-1.13 -19.47,-1.7 -27.94,-1.7 -11.85,0 -23.13,0.85 -33.87,2.54 -10.16,1.13 -19.18,3.67 -27.09,7.62 -7.89,3.95 -14.1,9.31 -18.6,16.09 -4.53,6.77 -6.8,15.24 -6.8,25.4 0,19.75 6.51,33.58 19.47,41.49 13.55,7.33 31.91,11 55.04,11zm-10.16 -369.15c37.25,0 68.31,4.24 93.16,12.7 24.81,8.47 44.58,20.61 59.24,36.41 15.24,15.81 25.98,35 32.2,57.57 6.19,22.58 9.28,47.7 9.28,75.36l0 262.46c-18.04,3.96 -43.15,8.47 -75.32,13.55 -32.2,5.65 -71.15,8.47 -116.87,8.47 -28.76,0 -55.01,-2.54 -78.71,-7.62 -23.16,-5.08 -43.21,-13.27 -60.14,-24.55 -16.94,-11.86 -29.9,-27.1 -38.95,-45.73 -9.02,-18.62 -13.55,-41.48 -13.55,-68.57 0,-25.97 5.08,-47.98 15.27,-66.04 10.71,-18.07 24.82,-32.46 42.33,-43.18 17.49,-10.73 37.52,-18.35 60.12,-22.86 22.56,-5.08 45.98,-7.62 70.27,-7.62 16.35,0 30.74,0.84 43.15,2.54 12.99,1.12 23.44,2.82 31.36,5.08l0 -11.86c0,-21.45 -6.51,-38.66 -19.48,-51.65 -12.99,-12.98 -35.56,-19.47 -67.76,-19.47 -21.43,0 -42.6,1.69 -63.5,5.08 -20.87,2.82 -38.94,7.06 -54.16,12.7l-16.11 -101.6c7.35,-2.26 16.38,-4.51 27.12,-6.77 11.27,-2.82 23.41,-5.08 36.38,-6.78 12.99,-2.25 26.54,-3.95 40.67,-5.08 14.65,-1.69 29.34,-2.54 44,-2.54z"/>
   <path class="fil1" d="M387.42 51.03l-121.04 231.16c-7.82,14.92 -2.67,33.58 11.58,41.97l189.53 111.65c14.44,8.5 32.8,3.27 41.02,-11.69l231.67 -422.01 -273.43 0c-33.1,0 -63.54,18.78 -79.33,48.92z"/>
   <path class="fil2" d="M740.17 2.1l-231.67 422.01c-8.23,14.96 -26.57,20.2 -41.01,11.7l-49.47 -29.13c12.06,2.01 24.61,-3.73 30.99,-15.38l213.71 -389.2 77.45 0z"/>
   <path class="fil3" d="M993.66 225.91l-83.48 -172.25c-15.32,-31.6 -46.53,-51.55 -80.66,-51.55l-241.38 0 185.33 325.86c-0.6,0.29 -1.21,0.57 -1.82,0.85 -11.66,5.44 -11.18,22.77 0.75,27.52l160.04 63.69c7.42,2.96 15.74,-0.88 18.58,-8.57l61.7 -166.49c4.56,-12.31 -7.42,-24.2 -19.06,-19.06z"/>
   <path class="fil4" d="M1012.72 244.96l-61.71 166.49c-2.84,7.7 -11.17,11.54 -18.58,8.58l-48.42 -19.28 57.72 -155.79c3.28,-8.84 -1.96,-17.44 -9.48,-19.7 -7.16,-2.15 -13.27,-7.01 -16.62,-13.92l-76.44 -157.68c-15.31,-31.6 -46.51,-51.56 -80.65,-51.56l70.99 0c34.11,0 65.31,19.96 80.64,51.56l83.48 172.26c11.66,-5.14 23.62,6.72 19.07,19.04z"/>
   <path class="fil1" d="M832.38 890.02c-2.24,-9.56 -14.15,-13.66 -21.42,-6.13l-125.08 129.62c-4.99,5.18 -4.99,13.56 0,18.73l125.57 130.12c7.21,7.48 19,3.49 21.37,-5.91l184.65 0c34,0 65.11,-19.8 80.49,-51.22l105.36 -215.21 -370.94 0 0 0z"/>
   <path class="fil2" d="M988.26 890.02l59.87 93.89c13.54,21.22 15.04,48.35 3.93,71.04l-24.63 50.29c-15.35,31.41 -46.48,51.22 -80.46,51.22l70.5 0c33.98,0 65.11,-19.81 80.49,-51.22l105.36 -215.21 -215.06 0 0 -0.01z"/>
   <path class="fil1" d="M580.4 1131.71l0 -229.09c0,-17.21 -13.47,-31.18 -30.09,-31.18l-495.58 0 127.54 242.65c15.81,30.08 46.21,48.79 79.26,48.79l288.78 0c16.61,0 30.09,-13.95 30.09,-31.17z"/>
   <polygon class="fil2" points="264.91,871.46 154.85,1061.95 54.73,871.46 "/>
   <path class="fil1" d="M580.39 902.63l0 229.09c0,17.21 -13.47,31.17 -30.08,31.17l-78.94 0c16.61,0 30.08,-13.96 30.08,-31.17l0 -229.09c0,-17.22 -13.47,-31.17 -30.08,-31.17l78.94 0c16.61,0 30.08,13.95 30.08,31.17z"/>
   <path class="fil3" d="M338.28 669.02l-22.25 -173.56c-1.1,-8.58 -8.7,-14.6 -16.97,-13.46l-168.13 23.15c-12.66,1.74 -17.38,17.7 -8.7,26.58l-106.11 158.49c-19.45,29.06 -21.43,67 -5.1,98.05l115.46 219.69 187.48 -324.54c0.07,0.05 0.13,0.1 0.2,0.15 10.7,8.42 25.89,-0.75 24.12,-14.55z"/>
   <path class="fil4" d="M314.15 683.57c-0.05,-0.05 -0.13,-0.1 -0.18,-0.16l-187.49 324.53 -38.56 -73.35 152.6 -264.19 4.23 -7.33c2.32,-4.01 6.84,-5.74 11.26,-4.85 0.02,0.01 0.05,0.01 0.07,0.01 9.41,1.74 19.06,-6.38 17.61,-17.53l-19.55 -152.53 44.9 -6.17c8.28,-1.14 15.9,4.9 16.99,13.45l22.26 173.59c1.77,13.79 -13.44,22.95 -24.14,14.53z"/>
   <path class="fil3" d="M1254.04 678.29l-145.14 -217.94c-8.9,-13.37 -26.22,-17.42 -39.8,-9.3l-189.14 113.11c-15.02,8.98 -19.62,29.21 -10.07,44.2l266.65 418.07 123.71 -252.69c14.97,-30.59 12.59,-67.22 -6.21,-95.45z"/>
   <path class="fil4" d="M1260.25 773.74l-123.73 252.69 -41.5 -65.1 91.84 -187.59c14.97,-30.59 12.59,-67.21 -6.21,-95.44l-140.01 -210.21 28.47 -17.03c13.57,-8.13 30.89,-4.08 39.79,9.29l145.14 217.95c18.8,28.23 21.18,64.85 6.21,95.44z"/>
  </g>
 </g>
</svg>
